<?xml version="1.0" encoding="UTF-8" standalone="no"?>
<!-- Created with Inkscape (http://www.inkscape.org/) -->
<svg
   xmlns:ns="http://creativecommons.org/ns#"
   xmlns:dc="http://purl.org/dc/elements/1.1/"
   xmlns:cc="http://web.resource.org/cc/"
   xmlns:rdf="http://www.w3.org/1999/02/22-rdf-syntax-ns#"
   xmlns:svg="http://www.w3.org/2000/svg"
   xmlns="http://www.w3.org/2000/svg"
   xmlns:xlink="http://www.w3.org/1999/xlink"
   xmlns:sodipodi="http://sodipodi.sourceforge.net/DTD/sodipodi-0.dtd"
   xmlns:inkscape="http://www.inkscape.org/namespaces/inkscape"
   version="1.2"
   width="240"
   height="70"
   id="svg2455"
   inkscape:version="0.45"
   sodipodi:docname="hot_logo_with_text.svg"
   inkscape:export-filename="/home/harry/hotlogo/Logo_design_design.png"
   inkscape:export-xdpi="120.95238"
   inkscape:export-ydpi="120.95238"
   sodipodi:version="0.32"
   inkscape:output_extension="org.inkscape.output.svg.inkscape"
   sodipodi:docbase="E:\osm"
   sodipodi:modified="true">
  <sodipodi:namedview
     pagecolor="#ffffff"
     bordercolor="#666666"
     borderopacity="1"
     objecttolerance="10"
     gridtolerance="10"
     guidetolerance="10"
     inkscape:pageopacity="0"
     inkscape:pageshadow="2"
     inkscape:window-width="1280"
     inkscape:window-height="702"
     id="namedview4422"
     showgrid="false"
     inkscape:zoom="2.4583333"
     inkscape:cx="148.55461"
     inkscape:cy="15.034373"
     inkscape:window-x="0"
     inkscape:window-y="22"
     inkscape:window-maximized="1"
     inkscape:current-layer="svg2455" />
  <defs
     id="defs3">
    <inkscape:perspective
       sodipodi:type="inkscape:persp3d"
       inkscape:vp_x="0 : 24 : 1"
       inkscape:vp_y="0 : 1000 : 0"
       inkscape:vp_z="48 : 24 : 1"
       inkscape:persp3d-origin="24 : 16 : 1"
       id="perspective4424" />
    <linearGradient
       id="linearGradient2419">
      <stop
         id="stop2420"
         style="stop-color:#000000;stop-opacity:0.50515461"
         offset="0" />
      <stop
         id="stop2421"
         style="stop-color:#000000;stop-opacity:0"
         offset="1" />
    </linearGradient>
    <linearGradient
       x1="156.33752"
       y1="184.92068"
       x2="264.56921"
       y2="184.92068"
       id="linearGradient2422"
       xlink:href="#linearGradient2419"
       gradientUnits="userSpaceOnUse"
       gradientTransform="scale(1.19593,0.836169)" />
    <linearGradient
       id="linearGradient2411">
      <stop
         id="stop2412"
         style="stop-color:#ffffff;stop-opacity:1"
         offset="0" />
      <stop
         id="stop2413"
         style="stop-color:#ffffff;stop-opacity:0"
         offset="1" />
    </linearGradient>
    <radialGradient
       cx="212.59842"
       cy="70.866119"
       r="35.433071"
       fx="212.59842"
       fy="70.866119"
       id="radialGradient2415"
       xlink:href="#linearGradient2411"
       gradientUnits="userSpaceOnUse" />
    <linearGradient
       x1="414.13153"
       y1="240.14357"
       x2="302.99097"
       y2="240.80186"
       id="linearGradient1779"
       xlink:href="#linearGradient1767"
       gradientUnits="userSpaceOnUse"
       gradientTransform="scale(0.689104,1.45116)" />
    <linearGradient
       id="linearGradient1767">
      <stop
         id="stop1768"
         style="stop-color:#3f3318;stop-opacity:1"
         offset="0" />
      <stop
         id="stop1769"
         style="stop-color:#815f0e;stop-opacity:1"
         offset="1" />
    </linearGradient>
    <linearGradient
       x1="299.37338"
       y1="252.27031"
       x2="411.72696"
       y2="252.27031"
       id="linearGradient1778"
       xlink:href="#linearGradient1767"
       gradientUnits="userSpaceOnUse"
       gradientTransform="matrix(0.697599,0,0,1.47183,0,-11.82638)" />
    <linearGradient
       id="linearGradient1754">
      <stop
         id="stop1755"
         style="stop-color:#747474;stop-opacity:1"
         offset="0" />
      <stop
         id="stop1757"
         style="stop-color:#bebebe;stop-opacity:1"
         offset="0.5" />
      <stop
         id="stop1759"
         style="stop-color:#d5d5d5;stop-opacity:1"
         offset="0.625" />
      <stop
         id="stop1758"
         style="stop-color:#818181;stop-opacity:1"
         offset="0.75" />
      <stop
         id="stop1756"
         style="stop-color:#c3c3c3;stop-opacity:1"
         offset="1" />
    </linearGradient>
    <linearGradient
       x1="150.49463"
       y1="42.808048"
       x2="345.53265"
       y2="242.17987"
       id="linearGradient1777"
       xlink:href="#linearGradient1754"
       gradientUnits="userSpaceOnUse"
       gradientTransform="scale(1.000071,0.999929)" />
    <pattern
       patternUnits="userSpaceOnUse"
       width="28.945312"
       height="33.076172"
       patternTransform="translate(190.4901,70.84341)"
       id="pattern2568">
      <text
         xml:space="preserve"
         style="font-size:12.000000;font-style:normal;font-weight:normal;fill:#000000;fill-opacity:1.0000000;stroke:none;stroke-width:1.0000000pt;stroke-linecap:butt;stroke-linejoin:miter;stroke-opacity:1.0000000;font-family:Bitstream Vera Sans"
         x="189.69904"
         y="67.749657"
         id="text2569"
         transform="translate(-190.4901,-70.84341)"><tspan
           id="tspan2570"
           x="189.69904"
           y="67.749657" /><tspan
           id="tspan2576"
           x="189.69904"
           y="79.749657">0010</tspan><tspan
           id="tspan2578"
           x="189.69904"
           y="91.749657">0100</tspan><tspan
           id="tspan2580"
           x="189.69904"
           y="103.74966">0111</tspan><tspan
           id="tspan2582"
           x="189.69904"
           y="115.74966" /></text>
    </pattern>
    <pattern
       patternUnits="userSpaceOnUse"
       width="32.232422"
       height="37.876175"
       patternTransform="translate(183.7668,59.46841)"
       id="pattern2606">
      <text
         xml:space="preserve"
         style="font-size:12.000000;font-style:normal;font-weight:bold;fill:#000000;fill-opacity:1.0000000;stroke:none;stroke-width:1.0000000pt;stroke-linecap:butt;stroke-linejoin:miter;stroke-opacity:1.0000000;font-family:Bitstream Vera Sans;font-stretch:normal;font-variant:normal;text-anchor:middle;writing-mode:lr;"
         x="189.69904"
         y="67.749657"
         id="text2607"
         transform="translate(-173.5858,-58.84341)"><tspan
           x="189.69904"
           y="67.749657"
           id="tspan2608">0010</tspan><tspan
           x="189.69904"
           y="82.149657"
           id="tspan2610">0100</tspan><tspan
           x="189.69904"
           y="96.549658"
           id="tspan2612">0111</tspan></text>
    </pattern>
    <pattern
       patternUnits="userSpaceOnUse"
       width="32.232422"
       height="28.276169"
       patternTransform="translate(183.7668,59.46841)"
       id="pattern2623">
      <text
         xml:space="preserve"
         style="font-size:12.000000;font-style:normal;font-variant:normal;font-weight:bold;font-stretch:normal;fill:#000000;fill-opacity:1.0000000;stroke:none;stroke-width:1.0000000pt;stroke-linecap:butt;stroke-linejoin:miter;stroke-opacity:1.0000000;font-family:Bitstream Vera Sans;text-anchor:middle;writing-mode:lr;"
         x="189.69904"
         y="67.749657"
         id="text2624"
         transform="translate(-173.5858,-58.84341)"><tspan
           x="189.69904"
           y="67.749657"
           id="tspan2625">0010</tspan><tspan
           x="189.69904"
           y="77.349657"
           id="tspan2627">0100</tspan><tspan
           x="189.69904"
           y="86.949657"
           id="tspan2629">0111</tspan></text>
    </pattern>
    <pattern
       patternUnits="userSpaceOnUse"
       width="32.232422"
       height="25.876175"
       patternTransform="translate(183.7668,59.46841)"
       id="pattern2639">
      <text
         xml:space="preserve"
         style="font-size:12.000000;font-style:normal;font-variant:normal;font-weight:bold;font-stretch:normal;fill:#000000;fill-opacity:1.0000000;stroke:none;stroke-width:1.0000000pt;stroke-linecap:butt;stroke-linejoin:miter;stroke-opacity:1.0000000;font-family:Bitstream Vera Sans;text-anchor:middle;writing-mode:lr;"
         x="189.69904"
         y="67.749657"
         id="text2640"
         transform="translate(-173.5858,-58.84341)"><tspan
           x="189.69904"
           y="67.749657"
           id="tspan2641">0010</tspan><tspan
           x="189.69904"
           y="76.149656"
           id="tspan2643">0100</tspan><tspan
           x="189.69904"
           y="84.549656"
           id="tspan2645">0111</tspan></text>
    </pattern>
    <pattern
       patternUnits="userSpaceOnUse"
       width="96.697266"
       height="77.628510"
       patternTransform="translate(151.5402,41.65591)"
       id="pattern2692">
      <text
         xml:space="preserve"
         style="font-size:36.000000;font-style:normal;font-variant:normal;font-weight:bold;font-stretch:normal;fill:#000000;fill-opacity:1.0000000;stroke:none;stroke-width:1.0000000pt;stroke-linecap:butt;stroke-linejoin:miter;stroke-opacity:1.0000000;font-family:Bitstream Vera Sans;text-anchor:middle;writing-mode:lr;"
         x="189.69904"
         y="67.749657"
         id="text2693"
         transform="translate(-141.3592,-41.03091)"><tspan
           x="189.69904"
           y="67.749657"
           id="tspan2694">0010</tspan><tspan
           x="189.69904"
           y="92.949656"
           id="tspan2696">0100</tspan><tspan
           x="189.69904"
           y="118.14965"
           id="tspan2698">0111</tspan></text>
    </pattern>
    <linearGradient
       x1="150.49463"
       y1="42.808048"
       x2="345.53265"
       y2="242.17987"
       id="linearGradient3789"
       xlink:href="#linearGradient1754"
       gradientUnits="userSpaceOnUse"
       gradientTransform="scale(1.000071,0.999929)" />
    <linearGradient
       x1="299.37338"
       y1="252.27031"
       x2="411.72696"
       y2="252.27031"
       id="linearGradient3791"
       xlink:href="#linearGradient1767"
       gradientUnits="userSpaceOnUse"
       gradientTransform="matrix(0.697599,0,0,1.47183,0,-11.82638)" />
    <linearGradient
       x1="414.13153"
       y1="240.14357"
       x2="302.99097"
       y2="240.80186"
       id="linearGradient3793"
       xlink:href="#linearGradient1767"
       gradientUnits="userSpaceOnUse"
       gradientTransform="scale(0.689104,1.45116)" />
    <radialGradient
       cx="212.59842"
       cy="70.866119"
       r="35.433071"
       fx="212.59842"
       fy="70.866119"
       id="radialGradient3795"
       xlink:href="#linearGradient2411"
       gradientUnits="userSpaceOnUse" />
    <linearGradient
       x1="156.33752"
       y1="184.92068"
       x2="264.56921"
       y2="184.92068"
       id="linearGradient3797"
       xlink:href="#linearGradient2419"
       gradientUnits="userSpaceOnUse"
       gradientTransform="scale(1.19593,0.836169)" />
    <inkscape:perspective
       id="perspective3056"
       inkscape:persp3d-origin="0.5 : 0.33333333 : 1"
       inkscape:vp_z="1 : 0.5 : 1"
       inkscape:vp_y="0 : 1000 : 0"
       inkscape:vp_x="0 : 0.5 : 1"
       sodipodi:type="inkscape:persp3d" />
    <clipPath
       clipPathUnits="userSpaceOnUse"
       id="clipPath5952">
      <path
         style="fill:#000000;fill-opacity:1;stroke:none"
         d="m 241.49446,44.07903 c -5.8767,-3.39291 -13.34958,-1.39057 -16.7425,4.48614 l -47.2484,81.83664 -3.01836,5.22794 c -0.0707,0.12242 -0.12045,0.25138 -0.18643,0.37517 -2.85267,4.33933 -7.21455,9.39641 -11.47466,8.01033 -3.45603,-1.12444 -2.21165,-7.3937 -0.46869,-12.67281 0.0168,-0.0514 0.0388,-0.0977 0.0558,-0.14887 l 2.88844,-7.35489 0.0653,-0.11318 25.93837,-65.62389 c 2.33971,-5.91584 -0.1995,-12.51855 -5.7272,-15.37689 -0.36854,-0.19054 -0.75727,-0.35806 -1.15167,-0.51404 -6.31023,-2.49569 -13.39523,0.56863 -15.89093,6.87887 l -29.01325,73.35397 c 0,0 -13.95135,28.08081 -27.8688,41.99826 -10.5581,10.55809 -13.37868,-5.43807 -14.10255,-12.57795 -0.009,-0.16206 -0.003,-0.32972 -0.0173,-0.49277 l -0.21507,-2.65894 -0.01,-0.0357 -3.46223,-41.40844 C 93.1501,98.9434 85.87519,92.6568 77.53787,93.17621 l -0.18806,0.0121 c -8.33732,0.51941 -14.49599,7.63633 -13.80176,15.96091 l 2.87675,34.58263 c -3.24986,21.86833 -17.49702,102.83535 45.84961,142.76862 59.90151,37.7615 120.12019,-63.03146 128.18889,-77.20078 0.27278,-0.16865 0.54742,-0.34644 0.78023,-0.51514 l 4.55263,-3.28599 46.34317,-33.59526 c 5.49468,-3.98198 6.95724,-11.29945 3.25614,-16.40657 -3.7011,-5.10712 -11.10208,-6.02018 -16.59676,-2.03821 l -45.91385,33.26978 -0.0131,0.0226 c -0.11076,0.0767 -11.9543,8.25224 -14.39684,1.10281 -1.23546,-3.61624 6.49959,-14.63583 10.44505,-19.92069 1.31516,-1.76163 2.21056,-2.888 2.21056,-2.888 l 50.05228,-64.37554 c 4.16453,-5.35764 3.20402,-13.01166 -2.15363,-17.17619 -5.35764,-4.16452 -13.03428,-3.21708 -17.19882,2.14057 l -51.51291,66.27823 c -0.33353,0.32269 -8.73178,8.38692 -13.03413,5.90295 -4.38943,-2.53423 0.26861,-12.27734 0.26861,-12.27734 l 48.79024,-84.50718 c 3.39292,-5.8767 1.39057,-13.34957 -4.48615,-16.74249 l -0.36211,-0.20906 z"
         id="path5954" />
    </clipPath>
    <inkscape:perspective
       id="perspective3229"
       inkscape:persp3d-origin="0.5 : 0.33333333 : 1"
       inkscape:vp_z="1 : 0.5 : 1"
       inkscape:vp_y="0 : 1000 : 0"
       inkscape:vp_x="0 : 0.5 : 1"
       sodipodi:type="inkscape:persp3d" />
    <clipPath
       clipPathUnits="userSpaceOnUse"
       id="clipPath5952-0">
      <path
         style="fill:#000000;fill-opacity:1;stroke:none"
         d="m 241.49446,44.07903 c -5.8767,-3.39291 -13.34958,-1.39057 -16.7425,4.48614 l -47.2484,81.83664 -3.01836,5.22794 c -0.0707,0.12242 -0.12045,0.25138 -0.18643,0.37517 -2.85267,4.33933 -7.21455,9.39641 -11.47466,8.01033 -3.45603,-1.12444 -2.21165,-7.3937 -0.46869,-12.67281 0.0168,-0.0514 0.0388,-0.0977 0.0558,-0.14887 l 2.88844,-7.35489 0.0653,-0.11318 25.93837,-65.62389 c 2.33971,-5.91584 -0.1995,-12.51855 -5.7272,-15.37689 -0.36854,-0.19054 -0.75727,-0.35806 -1.15167,-0.51404 -6.31023,-2.49569 -13.39523,0.56863 -15.89093,6.87887 l -29.01325,73.35397 c 0,0 -13.95135,28.08081 -27.8688,41.99826 -10.5581,10.55809 -13.37868,-5.43807 -14.10255,-12.57795 -0.009,-0.16206 -0.003,-0.32972 -0.0173,-0.49277 l -0.21507,-2.65894 -0.01,-0.0357 -3.46223,-41.40844 C 93.1501,98.9434 85.87519,92.6568 77.53787,93.17621 l -0.18806,0.0121 c -8.33732,0.51941 -14.49599,7.63633 -13.80176,15.96091 l 2.87675,34.58263 c -3.24986,21.86833 -17.49702,102.83535 45.84961,142.76862 59.90151,37.7615 120.12019,-63.03146 128.18889,-77.20078 0.27278,-0.16865 0.54742,-0.34644 0.78023,-0.51514 l 4.55263,-3.28599 46.34317,-33.59526 c 5.49468,-3.98198 6.95724,-11.29945 3.25614,-16.40657 -3.7011,-5.10712 -11.10208,-6.02018 -16.59676,-2.03821 l -45.91385,33.26978 -0.0131,0.0226 c -0.11076,0.0767 -11.9543,8.25224 -14.39684,1.10281 -1.23546,-3.61624 6.49959,-14.63583 10.44505,-19.92069 1.31516,-1.76163 2.21056,-2.888 2.21056,-2.888 l 50.05228,-64.37554 c 4.16453,-5.35764 3.20402,-13.01166 -2.15363,-17.17619 -5.35764,-4.16452 -13.03428,-3.21708 -17.19882,2.14057 l -51.51291,66.27823 c -0.33353,0.32269 -8.73178,8.38692 -13.03413,5.90295 -4.38943,-2.53423 0.26861,-12.27734 0.26861,-12.27734 l 48.79024,-84.50718 c 3.39292,-5.8767 1.39057,-13.34957 -4.48615,-16.74249 l -0.36211,-0.20906 z"
         id="path5954-1" />
    </clipPath>
    <inkscape:perspective
       id="perspective3558"
       inkscape:persp3d-origin="0.5 : 0.33333333 : 1"
       inkscape:vp_z="1 : 0.5 : 1"
       inkscape:vp_y="0 : 1000 : 0"
       inkscape:vp_x="0 : 0.5 : 1"
       sodipodi:type="inkscape:persp3d" />
    <inkscape:perspective
       id="perspective4880"
       inkscape:persp3d-origin="0.5 : 0.33333333 : 1"
       inkscape:vp_z="1 : 0.5 : 1"
       inkscape:vp_y="0 : 1000 : 0"
       inkscape:vp_x="0 : 0.5 : 1"
       sodipodi:type="inkscape:persp3d" />
  </defs>
  <metadata
     id="metadata4">
    <rdf:RDF>
      <ns:Work
         rdf:about="">
        <dc:format>image/svg+xml</dc:format>
        <dc:type
           rdf:resource="http://purl.org/dc/dcmitype/StillImage" />
        <dc:title />
      </ns:Work>
      <cc:Work
         rdf:about="">
        <dc:format>image/svg+xml</dc:format>
        <dc:type
           rdf:resource="http://purl.org/dc/dcmitype/StillImage" />
      </cc:Work>
    </rdf:RDF>
  </metadata>
  <g
     style="display:block"
     id="layer4"
     transform="matrix(0.08798405,0,0,0.08595212,224.99266,113.54974)" />
  <g
     transform="translate(-347.65009,-167.71083)"
     id="g8210-6-1-6">
    <path
       inkscape:connector-curvature="0"
       style="color:#000000;fill:#d73f3f;fill-opacity:1;stroke:none;stroke-width:0.99999994;marker:none;visibility:visible;display:inline;overflow:visible;enable-background:accumulate"
       d="M 367.4339,175.8405 L 377.20186,186.91938 L 377.12646,186.91938 L 360.75853,186.91938 L 370.52649,198.03354 L 370.60189,198.10414 L 370.52649,198.10414 L 354.15856,198.10414 L 363.96423,209.21829 L 373.73219,220.33245 L 383.50015,231.41133 L 399.86807,231.41133 L 416.236,231.41133 L 432.56621,231.41133 L 422.79826,220.33245 L 422.72286,220.22665 L 422.79826,220.22665 L 439.16618,220.22665 L 429.43594,209.14778 L 429.47354,209.14778 L 445.84147,209.14778 L 436.0358,198.03362 L 426.26791,186.91941 L 416.49995,175.84053 L 400.13203,175.84053 L 383.7641,175.84053 L 367.43388,175.84053 L 367.4339,175.8405 z "
       id="path8022-0-2-8-5" />
    <path
       sodipodi:type="arc"
       style="color:#000000;fill:#ffffff;fill-opacity:1;fill-rule:nonzero;stroke:none;stroke-width:0.5;marker:none;visibility:visible;display:inline;overflow:visible;filter:url(#filter5412-9);enable-background:accumulate"
       id="path8066-3-4-4-6"
       sodipodi:cx="144.125"
       sodipodi:cy="483.375"
       sodipodi:rx="18.875"
       sodipodi:ry="18.875"
       d="M 163 483.375 A 18.875 18.875 0 1 1  125.25,483.375 A 18.875 18.875 0 1 1  163 483.375 z"
       transform="matrix(1.0473966,0,0,0.9798809,249.04396,-270.02402)" />
    <g
       transform="matrix(0.9358396,0,0,0.8755149,168.45563,-472.46106)"
       style="font-size:24.08884239px;font-style:normal;font-variant:normal;font-weight:normal;font-stretch:normal;text-indent:0;text-align:center;text-decoration:none;line-height:100%;letter-spacing:normal;word-spacing:normal;text-transform:none;direction:ltr;block-progression:tb;writing-mode:lr-tb;text-anchor:middle;color:#000000;fill:#d73f3f;fill-opacity:1;fill-rule:nonzero;stroke:none;stroke-width:4;marker:none;visibility:visible;display:inline;overflow:visible;enable-background:accumulate;font-family:Alternate Gothic LT No3"
       id="g8068-3-7-6-2">
      <path
         d="M 235.61815,773.27542 L 235.61815,780.35754 L 233.137,780.35754 L 233.137,764.29029 L 235.61815,764.29029 L 235.61815,770.98698 L 239.15921,770.98698 L 239.15921,764.29029 L 241.64036,764.29029 L 241.64036,780.35754 L 239.15921,780.35754 L 239.15921,773.27542 L 235.61815,773.27542"
         style="marker:none"
         id="path8070-6-8-6-5" />
      <path
         d="M 246.36479,775.20253 C 246.36478,775.52372 246.36478,775.79673 246.36479,776.02155 C 246.38089,776.23033 246.39689,776.42304 246.41299,776.59968 C 246.44509,776.76028 246.47719,776.90481 246.50939,777.03328 C 246.55759,777.1457 246.61377,777.26615 246.67801,777.39462 C 246.82254,777.66763 247.03131,777.88443 247.30432,778.04502 C 247.59338,778.18955 247.91457,778.26182 248.26788,778.26181 C 248.62117,778.26182 248.93433,778.18951 249.20734,778.04502 C 249.4964,777.88443 249.7132,777.66763 249.85774,777.39462 C 249.92194,777.26615 249.97015,777.1457 250.00227,777.03328 C 250.05047,776.90481 250.08257,776.76028 250.09867,776.59968 C 250.13077,776.4391 250.14687,776.24639 250.14687,776.02155 C 250.16297,775.79673 250.17097,775.52372 250.17097,775.20253 L 250.17097,769.4453 C 250.17096,769.12413 250.16297,768.85112 250.14687,768.62628 C 250.14686,768.40146 250.13077,768.20875 250.09867,768.04815 C 250.08257,767.88757 250.05047,767.75106 250.00227,767.63864 C 249.97017,767.51017 249.92197,767.3817 249.85774,767.25321 C 249.7132,766.98022 249.4964,766.77145 249.20734,766.6269 C 248.93433,766.46633 248.62117,766.38603 248.26788,766.38602 C 247.91457,766.38603 247.59338,766.46632 247.30432,766.6269 C 247.03131,766.77145 246.82254,766.98022 246.67801,767.25321 C 246.54954,767.49411 246.46121,767.75909 246.41304,768.04815 C 246.38094,768.33722 246.36484,768.80294 246.36484,769.4453 L 246.36484,775.20253 M 252.65203,775.25073 C 252.65202,776.16611 252.57973,776.91286 252.43523,777.49099 C 252.29068,778.06913 252.05783,778.59105 251.73665,779.05677 C 250.99792,780.08456 249.84165,780.59845 248.26786,780.59845 C 246.69405,780.59845 245.53779,780.08456 244.79906,779.05677 C 244.47788,778.59105 244.24502,778.06913 244.10049,777.49099 C 243.95595,776.91286 243.88369,776.16611 243.88369,775.25073 L 243.88369,769.39714 C 243.88369,768.48178 243.95599,767.73502 244.10049,767.15688 C 244.24502,766.57876 244.47788,766.05684 244.79906,765.5911 C 245.53779,764.56333 246.69405,764.04943 248.26786,764.04942 C 249.84165,764.04943 250.99792,764.56333 251.73665,765.5911 C 252.05783,766.05684 252.29068,766.57876 252.43523,767.15688 C 252.57975,767.73502 252.65202,768.48178 252.65203,769.39714 L 252.65203,775.25073"
         style="marker:none"
         id="path8072-1-6-7-9" />
      <path
         d="M 259.73146,780.35754 L 257.25031,780.35754 L 257.25031,766.57873 L 254.14285,766.57873 L 254.14285,764.29029 L 262.86301,764.29029 L 262.86301,766.57873 L 259.73146,766.57873 L 259.73146,780.35754"
         style="marker:none"
         id="path8074-8-3-2-1" />
    </g>
  </g>
  <path
     transform="matrix(0.9455723,0,0,0.9557302,-195.03564,-377.09503)"
     style="font-size:18px;font-style:normal;font-variant:normal;font-weight:normal;font-stretch:normal;fill:#000000;fill-opacity:1;stroke:none;font-family:Arial"
     d="M 327.87891,415.97782 L 327.87891,403.09306 L 329.58398,403.09306 L 329.58398,408.38407 L 336.28125,408.38407 L 336.28125,403.09306 L 337.98633,403.09306 L 337.98633,415.97782 L 336.28125,415.97782 L 336.28125,409.90458 L 329.58398,409.90458 L 329.58398,415.97782 L 327.87891,415.97782 z M 346.74902,415.97782 L 346.74902,414.60673 C 346.02245,415.66142 345.03515,416.18876 343.78711,416.18876 C 343.23632,416.18876 342.72216,416.08329 342.24463,415.87235 C 341.76709,415.66142 341.4126,415.39628 341.18115,415.07694 C 340.94971,414.75761 340.78711,414.3665 340.69336,413.9036 C 340.62891,413.59306 340.59668,413.10087 340.59668,412.42704 L 340.59668,406.64384 L 342.17871,406.64384 L 342.17871,411.8206 C 342.17871,412.64677 342.21093,413.20341 342.27539,413.49052 C 342.375,413.90654 342.58593,414.2332 342.9082,414.4705 C 343.23046,414.7078 343.6289,414.82646 344.10352,414.82646 C 344.57812,414.82646 345.02343,414.70487 345.43945,414.46171 C 345.85546,414.21855 346.1499,413.88749 346.32275,413.46855 C 346.4956,413.0496 346.58202,412.44169 346.58203,411.64481 L 346.58203,406.64384 L 348.16406,406.64384 L 348.16406,415.97782 L 346.74902,415.97782 z M 350.65137,415.97782 L 350.65137,406.64384 L 352.06641,406.64384 L 352.06641,407.95341 C 352.35937,407.49639 352.74902,407.12871 353.23535,406.85038 C 353.72168,406.57207 354.27539,406.43291 354.89648,406.4329 C 355.58788,406.43291 356.15478,406.57646 356.59717,406.86356 C 357.03954,407.15068 357.35155,407.55205 357.5332,408.06767 C 358.27148,406.97783 359.23241,406.43291 360.41602,406.4329 C 361.34178,406.43291 362.0537,406.68926 362.55176,407.20194 C 363.04979,407.71465 363.29881,408.5042 363.29883,409.5706 L 363.29883,415.97782 L 361.72559,415.97782 L 361.72559,410.09794 C 361.72557,409.46513 361.6743,409.00957 361.57178,408.73124 C 361.46923,408.45293 361.28319,408.22881 361.01367,408.05888 C 360.74413,407.88896 360.42772,407.804 360.06445,407.80399 C 359.40819,407.804 358.86327,408.02226 358.42969,408.45878 C 357.99609,408.89531 357.77929,409.59404 357.7793,410.55497 L 357.7793,415.97782 L 356.19727,415.97782 L 356.19727,409.91337 C 356.19726,409.21025 356.06835,408.68291 355.81055,408.33134 C 355.55273,407.97978 355.13085,407.804 354.54492,407.80399 C 354.0996,407.804 353.68798,407.92119 353.31006,408.15556 C 352.93213,408.38994 352.6582,408.73271 352.48828,409.18388 C 352.31836,409.63506 352.2334,410.28545 352.2334,411.13505 L 352.2334,415.97782 L 350.65137,415.97782 z M 371.75391,414.82646 C 371.16796,415.3245 370.604,415.67607 370.06201,415.88114 C 369.52001,416.08622 368.93847,416.18876 368.31738,416.18876 C 367.29199,416.18876 366.5039,415.93827 365.95313,415.4373 C 365.40234,414.93632 365.12695,414.29618 365.12695,413.51689 C 365.12695,413.05986 365.23096,412.64238 365.43896,412.26444 C 365.64697,411.88652 365.91943,411.5833 366.25635,411.35478 C 366.59326,411.12626 366.97265,410.95341 367.39453,410.83622 C 367.70507,410.75419 368.17382,410.67509 368.80078,410.59892 C 370.07812,410.44658 371.01855,410.26494 371.62207,410.05399 C 371.62792,409.8372 371.63085,409.69951 371.63086,409.64091 C 371.63085,408.99638 371.48144,408.54228 371.18262,408.2786 C 370.77831,407.92119 370.17773,407.74248 369.38086,407.74247 C 368.63671,407.74248 368.0874,407.87285 367.73291,408.13358 C 367.37842,408.39433 367.11621,408.85576 366.94629,409.51786 L 365.39941,409.30692 C 365.54004,408.64482 365.77148,408.11015 366.09375,407.70292 C 366.41601,407.2957 366.88183,406.98223 367.49121,406.76249 C 368.10058,406.54277 368.80664,406.43291 369.60938,406.4329 C 370.40624,406.43291 371.0537,406.52666 371.55176,406.71415 C 372.0498,406.90166 372.41601,407.1375 372.65039,407.42167 C 372.88476,407.70586 373.04882,408.06474 373.14258,408.49833 C 373.1953,408.76787 373.22167,409.2542 373.22168,409.95731 L 373.22168,412.06669 C 373.22167,413.5374 373.25536,414.46757 373.32275,414.85722 C 373.39013,415.24687 373.52343,415.6204 373.72266,415.97782 L 372.07031,415.97782 C 371.90624,415.6497 371.80077,415.26591 371.75391,414.82646 L 371.75391,414.82646 z M 371.62207,411.29325 C 371.04784,411.52763 370.18652,411.72685 369.03809,411.89091 C 368.38769,411.98466 367.92773,412.09013 367.6582,412.20731 C 367.38867,412.32451 367.18066,412.49589 367.03418,412.72147 C 366.88769,412.94706 366.81445,413.19755 366.81445,413.47294 C 366.81445,413.89482 366.97412,414.24638 367.29346,414.52763 C 367.61279,414.80888 368.08007,414.9495 368.69531,414.9495 C 369.30468,414.9495 369.84667,414.8162 370.32129,414.5496 C 370.79589,414.283 371.14452,413.91825 371.36719,413.45536 C 371.5371,413.09794 371.62206,412.5706 371.62207,411.87333 L 371.62207,411.29325 z M 375.68262,415.97782 L 375.68262,406.64384 L 377.10645,406.64384 L 377.10645,407.97099 C 377.79199,406.94561 378.78222,406.43291 380.07715,406.4329 C 380.63964,406.43291 381.15673,406.53398 381.62842,406.73612 C 382.10009,406.93828 382.45312,407.20342 382.6875,407.53153 C 382.92187,407.85967 383.08593,408.24931 383.17969,408.70048 C 383.23827,408.99345 383.26757,409.50615 383.26758,410.23856 L 383.26758,415.97782 L 381.68555,415.97782 L 381.68555,410.30009 C 381.68554,409.65556 381.62402,409.17363 381.50098,408.85429 C 381.37792,408.53496 381.15966,408.28008 380.84619,408.08964 C 380.53271,407.89922 380.16503,407.804 379.74316,407.80399 C 379.06933,407.804 378.48779,408.01787 377.99854,408.4456 C 377.50927,408.87334 377.26465,409.68486 377.26465,410.88017 L 377.26465,415.97782 L 375.68262,415.97782 z M 385.71094,404.91239 L 385.71094,403.09306 L 387.29297,403.09306 L 387.29297,404.91239 L 385.71094,404.91239 z M 385.71094,415.97782 L 385.71094,406.64384 L 387.29297,406.64384 L 387.29297,415.97782 L 385.71094,415.97782 z M 393.16406,414.56278 L 393.39258,415.96024 C 392.94726,416.05399 392.54882,416.10087 392.19727,416.10087 C 391.62304,416.10087 391.17773,416.01005 390.86133,415.82841 C 390.54492,415.64677 390.32226,415.408 390.19336,415.1121 C 390.06445,414.8162 390,414.19364 390,413.24442 L 390,407.87431 L 388.83984,407.87431 L 388.83984,406.64384 L 390,406.64384 L 390,404.33231 L 391.57324,403.3831 L 391.57324,406.64384 L 393.16406,406.64384 L 393.16406,407.87431 L 391.57324,407.87431 L 391.57324,413.33231 C 391.57324,413.78349 391.60107,414.07353 391.65674,414.20243 C 391.7124,414.33134 391.80322,414.43388 391.9292,414.51005 C 392.05517,414.58622 392.23535,414.62431 392.46973,414.62431 C 392.6455,414.62431 392.87695,414.6038 393.16406,414.56278 L 393.16406,414.56278 z M 400.79297,414.82646 C 400.20702,415.3245 399.64306,415.67607 399.10107,415.88114 C 398.55908,416.08622 397.97753,416.18876 397.35645,416.18876 C 396.33105,416.18876 395.54297,415.93827 394.99219,415.4373 C 394.44141,414.93632 394.16601,414.29618 394.16602,413.51689 C 394.16601,413.05986 394.27002,412.64238 394.47803,412.26444 C 394.68603,411.88652 394.95849,411.5833 395.29541,411.35478 C 395.63232,411.12626 396.01172,410.95341 396.43359,410.83622 C 396.74414,410.75419 397.21289,410.67509 397.83984,410.59892 C 399.11718,410.44658 400.05761,410.26494 400.66113,410.05399 C 400.66699,409.8372 400.66991,409.69951 400.66992,409.64091 C 400.66991,408.99638 400.5205,408.54228 400.22168,408.2786 C 399.81738,407.92119 399.21679,407.74248 398.41992,407.74247 C 397.67578,407.74248 397.12646,407.87285 396.77197,408.13358 C 396.41748,408.39433 396.15527,408.85576 395.98535,409.51786 L 394.43848,409.30692 C 394.5791,408.64482 394.81055,408.11015 395.13281,407.70292 C 395.45508,407.2957 395.9209,406.98223 396.53027,406.76249 C 397.13964,406.54277 397.8457,406.43291 398.64844,406.4329 C 399.44531,406.43291 400.09277,406.52666 400.59082,406.71415 C 401.08886,406.90166 401.45507,407.1375 401.68945,407.42167 C 401.92382,407.70586 402.08788,408.06474 402.18164,408.49833 C 402.23437,408.76787 402.26073,409.2542 402.26074,409.95731 L 402.26074,412.06669 C 402.26073,413.5374 402.29442,414.46757 402.36182,414.85722 C 402.42919,415.24687 402.56249,415.6204 402.76172,415.97782 L 401.10938,415.97782 C 400.94531,415.6497 400.83984,415.26591 400.79297,414.82646 L 400.79297,414.82646 z M 400.66113,411.29325 C 400.08691,411.52763 399.22558,411.72685 398.07715,411.89091 C 397.42675,411.98466 396.96679,412.09013 396.69727,412.20731 C 396.42773,412.32451 396.21972,412.49589 396.07324,412.72147 C 395.92676,412.94706 395.85351,413.19755 395.85352,413.47294 C 395.85351,413.89482 396.01318,414.24638 396.33252,414.52763 C 396.65185,414.80888 397.11914,414.9495 397.73438,414.9495 C 398.34375,414.9495 398.88574,414.8162 399.36035,414.5496 C 399.83495,414.283 400.18359,413.91825 400.40625,413.45536 C 400.57616,413.09794 400.66113,412.5706 400.66113,411.87333 L 400.66113,411.29325 z M 404.7041,415.97782 L 404.7041,406.64384 L 406.12793,406.64384 L 406.12793,408.05888 C 406.49121,407.39678 406.82666,406.96025 407.13428,406.74931 C 407.44189,406.53838 407.78027,406.43291 408.14941,406.4329 C 408.68261,406.43291 409.2246,406.60283 409.77539,406.94267 L 409.23047,408.41044 C 408.84374,408.18193 408.45703,408.06767 408.07031,408.06767 C 407.72461,408.06767 407.41406,408.17168 407.13867,408.37968 C 406.86328,408.58769 406.66699,408.87627 406.5498,409.2454 C 406.37402,409.80791 406.28613,410.42314 406.28613,411.0911 L 406.28613,415.97782 L 404.7041,415.97782 z M 410.74219,404.91239 L 410.74219,403.09306 L 412.32422,403.09306 L 412.32422,404.91239 L 410.74219,404.91239 z M 410.74219,415.97782 L 410.74219,406.64384 L 412.32422,406.64384 L 412.32422,415.97782 L 410.74219,415.97782 z M 420.83203,414.82646 C 420.24609,415.3245 419.68212,415.67607 419.14014,415.88114 C 418.59814,416.08622 418.0166,416.18876 417.39551,416.18876 C 416.37011,416.18876 415.58203,415.93827 415.03125,415.4373 C 414.48047,414.93632 414.20508,414.29618 414.20508,413.51689 C 414.20508,413.05986 414.30908,412.64238 414.51709,412.26444 C 414.7251,411.88652 414.99756,411.5833 415.33447,411.35478 C 415.67138,411.12626 416.05078,410.95341 416.47266,410.83622 C 416.7832,410.75419 417.25195,410.67509 417.87891,410.59892 C 419.15624,410.44658 420.09667,410.26494 420.7002,410.05399 C 420.70605,409.8372 420.70898,409.69951 420.70898,409.64091 C 420.70898,408.99638 420.55956,408.54228 420.26074,408.2786 C 419.85644,407.92119 419.25585,407.74248 418.45898,407.74247 C 417.71484,407.74248 417.16552,407.87285 416.81104,408.13358 C 416.45654,408.39433 416.19433,408.85576 416.02441,409.51786 L 414.47754,409.30692 C 414.61816,408.64482 414.84961,408.11015 415.17188,407.70292 C 415.49414,407.2957 415.95996,406.98223 416.56934,406.76249 C 417.17871,406.54277 417.88476,406.43291 418.6875,406.4329 C 419.48437,406.43291 420.13183,406.52666 420.62988,406.71415 C 421.12792,406.90166 421.49413,407.1375 421.72852,407.42167 C 421.96288,407.70586 422.12694,408.06474 422.2207,408.49833 C 422.27343,408.76787 422.2998,409.2542 422.2998,409.95731 L 422.2998,412.06669 C 422.2998,413.5374 422.33349,414.46757 422.40088,414.85722 C 422.46825,415.24687 422.60155,415.6204 422.80078,415.97782 L 421.14844,415.97782 C 420.98437,415.6497 420.8789,415.26591 420.83203,414.82646 L 420.83203,414.82646 z M 420.7002,411.29325 C 420.12597,411.52763 419.26464,411.72685 418.11621,411.89091 C 417.46582,411.98466 417.00586,412.09013 416.73633,412.20731 C 416.46679,412.32451 416.25879,412.49589 416.1123,412.72147 C 415.96582,412.94706 415.89258,413.19755 415.89258,413.47294 C 415.89258,413.89482 416.05224,414.24638 416.37158,414.52763 C 416.69091,414.80888 417.1582,414.9495 417.77344,414.9495 C 418.38281,414.9495 418.9248,414.8162 419.39941,414.5496 C 419.87402,414.283 420.22265,413.91825 420.44531,413.45536 C 420.61523,413.09794 420.70019,412.5706 420.7002,411.87333 L 420.7002,411.29325 z M 424.76074,415.97782 L 424.76074,406.64384 L 426.18457,406.64384 L 426.18457,407.97099 C 426.87011,406.94561 427.86035,406.43291 429.15527,406.4329 C 429.71777,406.43291 430.23486,406.53398 430.70654,406.73612 C 431.17822,406.93828 431.53124,407.20342 431.76563,407.53153 C 431.99999,407.85967 432.16405,408.24931 432.25781,408.70048 C 432.3164,408.99345 432.34569,409.50615 432.3457,410.23856 L 432.3457,415.97782 L 430.76367,415.97782 L 430.76367,410.30009 C 430.76366,409.65556 430.70214,409.17363 430.5791,408.85429 C 430.45605,408.53496 430.23779,408.28008 429.92432,408.08964 C 429.61083,407.89922 429.24316,407.804 428.82129,407.80399 C 428.14746,407.804 427.56591,408.01787 427.07666,408.4456 C 426.5874,408.87334 426.34277,409.68486 426.34277,410.88017 L 426.34277,415.97782 L 424.76074,415.97782 z M 327.30762,432.20243 C 327.30762,430.06377 327.88183,428.38945 329.03027,427.17948 C 330.17871,425.96953 331.66113,425.36455 333.47754,425.36454 C 334.66698,425.36455 335.73925,425.64873 336.69434,426.21708 C 337.6494,426.78545 338.37743,427.57793 338.87842,428.59452 C 339.37938,429.61113 339.62987,430.76396 339.62988,432.05302 C 339.62987,433.35966 339.3662,434.52861 338.83887,435.55985 C 338.31151,436.59111 337.56444,437.37187 336.59766,437.90214 C 335.63085,438.43241 334.58788,438.69755 333.46875,438.69755 C 332.25585,438.69755 331.17187,438.40458 330.2168,437.81864 C 329.26172,437.23271 328.53808,436.4329 328.0459,435.41923 C 327.55371,434.40556 327.30762,433.3333 327.30762,432.20243 L 327.30762,432.20243 z M 329.06543,432.2288 C 329.06543,433.78154 329.48291,435.00468 330.31787,435.89823 C 331.15283,436.79179 332.20019,437.23857 333.45996,437.23856 C 334.74316,437.23857 335.79931,436.78739 336.62842,435.88505 C 337.45751,434.98271 337.87206,433.70244 337.87207,432.04423 C 337.87206,430.99541 337.69481,430.07988 337.34033,429.29765 C 336.98583,428.51543 336.46728,427.90899 335.78467,427.47831 C 335.10204,427.04766 334.33593,426.83233 333.48633,426.83231 C 332.27929,426.83233 331.24072,427.24688 330.37061,428.07597 C 329.50049,428.90508 329.06543,430.28935 329.06543,432.2288 L 329.06543,432.2288 z M 341.61621,442.05497 L 341.61621,429.14384 L 343.05762,429.14384 L 343.05762,430.35673 C 343.39746,429.88213 343.78125,429.52617 344.20898,429.28886 C 344.63671,429.05156 345.15527,428.93291 345.76465,428.9329 C 346.56152,428.93291 347.26464,429.13799 347.87402,429.54814 C 348.48339,429.9583 348.94335,430.53691 349.25391,431.28397 C 349.56444,432.03105 349.71972,432.8499 349.71973,433.74052 C 349.71972,434.6956 349.54833,435.55546 349.20557,436.32011 C 348.86278,437.08476 348.36474,437.67069 347.71143,438.07792 C 347.0581,438.48515 346.37109,438.68876 345.65039,438.68876 C 345.12304,438.68876 344.6499,438.57743 344.23096,438.35478 C 343.81201,438.13212 343.46777,437.85087 343.19824,437.51103 L 343.19824,442.05497 L 341.61621,442.05497 z M 343.04883,433.86356 C 343.04883,435.06474 343.29199,435.95243 343.77832,436.52665 C 344.26464,437.10087 344.85351,437.38798 345.54492,437.38798 C 346.24804,437.38798 346.85009,437.09062 347.35107,436.49589 C 347.85204,435.90117 348.10253,434.97978 348.10254,433.73173 C 348.10253,432.54228 347.8579,431.65166 347.36865,431.05985 C 346.87939,430.46806 346.29492,430.17217 345.61523,430.17216 C 344.9414,430.17217 344.34521,430.48711 343.82666,431.11698 C 343.3081,431.74687 343.04883,432.6624 343.04883,433.86356 L 343.04883,433.86356 z M 358.02539,435.47196 L 359.66016,435.67411 C 359.40233,436.62919 358.9248,437.3704 358.22754,437.89774 C 357.53027,438.42509 356.63964,438.68876 355.55566,438.68876 C 354.19043,438.68876 353.10791,438.26835 352.30811,437.42753 C 351.5083,436.58671 351.1084,435.40751 351.1084,433.88993 C 351.1084,432.31963 351.51269,431.10088 352.32129,430.23368 C 353.12988,429.3665 354.17871,428.93291 355.46777,428.9329 C 356.71581,428.93291 357.73534,429.35771 358.52637,430.20731 C 359.31737,431.05693 359.71288,432.25224 359.71289,433.79325 C 359.71288,433.88701 359.70995,434.02763 359.7041,434.21513 L 352.74316,434.21513 C 352.80176,435.24052 353.09179,436.02568 353.61328,436.5706 C 354.13476,437.11552 354.78515,437.38798 355.56445,437.38798 C 356.14453,437.38798 356.63964,437.23564 357.0498,436.93095 C 357.45995,436.62626 357.78515,436.13993 358.02539,435.47196 L 358.02539,435.47196 z M 352.83105,432.91435 L 358.04297,432.91435 C 357.97265,432.1292 357.77343,431.54033 357.44531,431.14774 C 356.9414,430.53838 356.28808,430.23369 355.48535,430.23368 C 354.75878,430.23369 354.14795,430.47685 353.65283,430.96317 C 353.15771,431.44951 352.88379,432.0999 352.83105,432.91435 L 352.83105,432.91435 z M 361.65527,438.47782 L 361.65527,429.14384 L 363.0791,429.14384 L 363.0791,430.47099 C 363.76465,429.44561 364.75488,428.93291 366.0498,428.9329 C 366.6123,428.93291 367.12939,429.03398 367.60107,429.23612 C 368.07275,429.43828 368.42577,429.70342 368.66016,430.03153 C 368.89452,430.35967 369.05859,430.74931 369.15234,431.20048 C 369.21093,431.49345 369.24023,432.00615 369.24023,432.73856 L 369.24023,438.47782 L 367.6582,438.47782 L 367.6582,432.80009 C 367.6582,432.15556 367.59667,431.67363 367.47363,431.35429 C 367.35058,431.03496 367.13232,430.78008 366.81885,430.58964 C 366.50537,430.39922 366.13769,430.304 365.71582,430.30399 C 365.04199,430.304 364.46045,430.51787 363.97119,430.9456 C 363.48193,431.37334 363.2373,432.18486 363.2373,433.38017 L 363.2373,438.47782 L 361.65527,438.47782 z M 371.29688,434.33817 L 372.90527,434.19755 C 372.98144,434.84208 373.15869,435.37089 373.43701,435.78397 C 373.71533,436.19706 374.14746,436.53105 374.7334,436.78593 C 375.31933,437.04081 375.97851,437.16825 376.71094,437.16825 C 377.36132,437.16825 377.93554,437.07157 378.43359,436.87821 C 378.93163,436.68486 379.30224,436.41972 379.54541,436.0828 C 379.78856,435.74589 379.91015,435.37822 379.91016,434.97978 C 379.91015,434.57548 379.79296,434.22246 379.55859,433.92069 C 379.32421,433.61894 378.93749,433.36552 378.39844,433.16044 C 378.05273,433.02568 377.28808,432.81621 376.10449,432.53202 C 374.92089,432.24785 374.09179,431.97978 373.61719,431.72782 C 373.00195,431.40556 372.54345,431.00566 372.2417,430.52812 C 371.93994,430.05058 371.78906,429.51592 371.78906,428.92411 C 371.78906,428.27373 371.97363,427.66582 372.34277,427.10038 C 372.71191,426.53496 373.25097,426.10576 373.95996,425.81278 C 374.66894,425.51983 375.45703,425.37334 376.32422,425.37333 C 377.27929,425.37334 378.12157,425.52715 378.85107,425.83476 C 379.58056,426.14239 380.14159,426.59502 380.53418,427.19267 C 380.92675,427.79033 381.13768,428.46709 381.16699,429.22294 L 379.53223,429.34599 C 379.44433,428.53154 379.14696,427.91631 378.64014,427.50028 C 378.13329,427.08428 377.38476,426.87627 376.39453,426.87626 C 375.36328,426.87627 374.61181,427.06524 374.14014,427.44315 C 373.66845,427.82109 373.43261,428.27666 373.43262,428.80985 C 373.43261,429.27275 373.59961,429.65361 373.93359,429.95243 C 374.26171,430.25127 375.11865,430.55742 376.50439,430.87089 C 377.89013,431.18437 378.84081,431.4583 379.35645,431.69267 C 380.10644,432.03838 380.66015,432.47636 381.01758,433.00663 C 381.37499,433.53691 381.5537,434.14775 381.55371,434.83915 C 381.5537,435.5247 381.35741,436.1707 380.96484,436.77714 C 380.57226,437.38359 380.00829,437.85526 379.27295,438.19218 C 378.53759,438.52909 377.70995,438.69755 376.79004,438.69755 C 375.62402,438.69755 374.64697,438.52763 373.85889,438.18778 C 373.0708,437.84794 372.45263,437.33671 372.00439,436.65409 C 371.55615,435.97148 371.32031,435.19951 371.29688,434.33817 L 371.29688,434.33817 z M 387.15234,437.06278 L 387.38086,438.46024 C 386.93554,438.55399 386.53711,438.60087 386.18555,438.60087 C 385.61133,438.60087 385.16601,438.51005 384.84961,438.32841 C 384.5332,438.14677 384.31055,437.908 384.18164,437.6121 C 384.05273,437.3162 383.98828,436.69364 383.98828,435.74442 L 383.98828,430.37431 L 382.82813,430.37431 L 382.82813,429.14384 L 383.98828,429.14384 L 383.98828,426.83231 L 385.56152,425.8831 L 385.56152,429.14384 L 387.15234,429.14384 L 387.15234,430.37431 L 385.56152,430.37431 L 385.56152,435.83231 C 385.56152,436.28349 385.58935,436.57353 385.64502,436.70243 C 385.70068,436.83134 385.7915,436.93388 385.91748,437.01005 C 386.04345,437.08622 386.22363,437.12431 386.45801,437.12431 C 386.63378,437.12431 386.86523,437.1038 387.15234,437.06278 L 387.15234,437.06278 z M 388.67285,438.47782 L 388.67285,429.14384 L 390.09668,429.14384 L 390.09668,430.55888 C 390.45996,429.89678 390.79541,429.46025 391.10303,429.24931 C 391.41064,429.03838 391.74902,428.93291 392.11816,428.9329 C 392.65136,428.93291 393.19335,429.10283 393.74414,429.44267 L 393.19922,430.91044 C 392.81249,430.68193 392.42578,430.56767 392.03906,430.56767 C 391.69336,430.56767 391.38281,430.67168 391.10742,430.87968 C 390.83203,431.08769 390.63574,431.37627 390.51855,431.7454 C 390.34277,432.30791 390.25488,432.92314 390.25488,433.5911 L 390.25488,438.47782 L 388.67285,438.47782 z M 401.0918,435.47196 L 402.72656,435.67411 C 402.46874,436.62919 401.9912,437.3704 401.29395,437.89774 C 400.59667,438.42509 399.70605,438.68876 398.62207,438.68876 C 397.25683,438.68876 396.17431,438.26835 395.37451,437.42753 C 394.57471,436.58671 394.1748,435.40751 394.1748,433.88993 C 394.1748,432.31963 394.5791,431.10088 395.3877,430.23368 C 396.19629,429.3665 397.24511,428.93291 398.53418,428.9329 C 399.78222,428.93291 400.80175,429.35771 401.59277,430.20731 C 402.38378,431.05693 402.77929,432.25224 402.7793,433.79325 C 402.77929,433.88701 402.77636,434.02763 402.77051,434.21513 L 395.80957,434.21513 C 395.86816,435.24052 396.1582,436.02568 396.67969,436.5706 C 397.20117,437.11552 397.85156,437.38798 398.63086,437.38798 C 399.21093,437.38798 399.70605,437.23564 400.11621,436.93095 C 400.52636,436.62626 400.85156,436.13993 401.0918,435.47196 L 401.0918,435.47196 z M 395.89746,432.91435 L 401.10938,432.91435 C 401.03905,432.1292 400.83984,431.54033 400.51172,431.14774 C 400.00781,430.53838 399.35449,430.23369 398.55176,430.23368 C 397.82519,430.23369 397.21435,430.47685 396.71924,430.96317 C 396.22412,431.44951 395.95019,432.0999 395.89746,432.91435 L 395.89746,432.91435 z M 411.11133,435.47196 L 412.74609,435.67411 C 412.48827,436.62919 412.01073,437.3704 411.31348,437.89774 C 410.6162,438.42509 409.72558,438.68876 408.6416,438.68876 C 407.27636,438.68876 406.19384,438.26835 405.39404,437.42753 C 404.59424,436.58671 404.19434,435.40751 404.19434,433.88993 C 404.19434,432.31963 404.59863,431.10088 405.40723,430.23368 C 406.21582,429.3665 407.26464,428.93291 408.55371,428.9329 C 409.80175,428.93291 410.82128,429.35771 411.6123,430.20731 C 412.40331,431.05693 412.79882,432.25224 412.79883,433.79325 C 412.79882,433.88701 412.79589,434.02763 412.79004,434.21513 L 405.8291,434.21513 C 405.88769,435.24052 406.17773,436.02568 406.69922,436.5706 C 407.2207,437.11552 407.87109,437.38798 408.65039,437.38798 C 409.23046,437.38798 409.72558,437.23564 410.13574,436.93095 C 410.54589,436.62626 410.87109,436.13993 411.11133,435.47196 L 411.11133,435.47196 z M 405.91699,432.91435 L 411.12891,432.91435 C 411.05859,432.1292 410.85937,431.54033 410.53125,431.14774 C 410.02734,430.53838 409.37402,430.23369 408.57129,430.23368 C 407.84472,430.23369 407.23388,430.47685 406.73877,430.96317 C 406.24365,431.44951 405.96972,432.0999 405.91699,432.91435 L 405.91699,432.91435 z M 418.19531,437.06278 L 418.42383,438.46024 C 417.97851,438.55399 417.58007,438.60087 417.22852,438.60087 C 416.65429,438.60087 416.20898,438.51005 415.89258,438.32841 C 415.57617,438.14677 415.35351,437.908 415.22461,437.6121 C 415.0957,437.3162 415.03125,436.69364 415.03125,435.74442 L 415.03125,430.37431 L 413.87109,430.37431 L 413.87109,429.14384 L 415.03125,429.14384 L 415.03125,426.83231 L 416.60449,425.8831 L 416.60449,429.14384 L 418.19531,429.14384 L 418.19531,430.37431 L 416.60449,430.37431 L 416.60449,435.83231 C 416.60449,436.28349 416.63232,436.57353 416.68799,436.70243 C 416.74365,436.83134 416.83447,436.93388 416.96045,437.01005 C 417.08642,437.08622 417.2666,437.12431 417.50098,437.12431 C 417.67675,437.12431 417.9082,437.1038 418.19531,437.06278 L 418.19531,437.06278 z M 419.88281,438.47782 L 419.88281,425.59306 L 422.44922,425.59306 L 425.49902,434.7161 C 425.78027,435.56572 425.98534,436.20146 426.11426,436.62333 C 426.26073,436.15458 426.48925,435.46611 426.7998,434.5579 L 429.88477,425.59306 L 432.17871,425.59306 L 432.17871,438.47782 L 430.53516,438.47782 L 430.53516,427.69364 L 426.79102,438.47782 L 425.25293,438.47782 L 421.52637,427.50907 L 421.52637,438.47782 L 419.88281,438.47782 z M 440.83594,437.32646 C 440.24999,437.8245 439.68603,438.17607 439.14404,438.38114 C 438.60205,438.58622 438.0205,438.68876 437.39941,438.68876 C 436.37402,438.68876 435.58594,438.43827 435.03516,437.9373 C 434.48437,437.43632 434.20898,436.79618 434.20898,436.01689 C 434.20898,435.55986 434.31299,435.14238 434.521,434.76444 C 434.729,434.38652 435.00146,434.0833 435.33838,433.85478 C 435.67529,433.62626 436.05469,433.45341 436.47656,433.33622 C 436.78711,433.25419 437.25586,433.17509 437.88281,433.09892 C 439.16015,432.94658 440.10058,432.76494 440.7041,432.55399 C 440.70995,432.3372 440.71288,432.19951 440.71289,432.14091 C 440.71288,431.49638 440.56347,431.04228 440.26465,430.7786 C 439.86035,430.42119 439.25976,430.24248 438.46289,430.24247 C 437.71875,430.24248 437.16943,430.37285 436.81494,430.63358 C 436.46045,430.89433 436.19824,431.35576 436.02832,432.01786 L 434.48145,431.80692 C 434.62207,431.14482 434.85351,430.61015 435.17578,430.20292 C 435.49804,429.7957 435.96386,429.48223 436.57324,429.26249 C 437.18261,429.04277 437.88867,428.93291 438.69141,428.9329 C 439.48828,428.93291 440.13574,429.02666 440.63379,429.21415 C 441.13183,429.40166 441.49804,429.6375 441.73242,429.92167 C 441.96679,430.20586 442.13085,430.56474 442.22461,430.99833 C 442.27734,431.26787 442.3037,431.7542 442.30371,432.45731 L 442.30371,434.56669 C 442.3037,436.0374 442.33739,436.96757 442.40479,437.35722 C 442.47216,437.74687 442.60546,438.1204 442.80469,438.47782 L 441.15234,438.47782 C 440.98827,438.1497 440.88281,437.76591 440.83594,437.32646 L 440.83594,437.32646 z M 440.7041,433.79325 C 440.12988,434.02763 439.26855,434.22685 438.12012,434.39091 C 437.46972,434.48466 437.00976,434.59013 436.74023,434.70731 C 436.4707,434.82451 436.26269,434.99589 436.11621,435.22147 C 435.96972,435.44706 435.89648,435.69755 435.89648,435.97294 C 435.89648,436.39482 436.05615,436.74638 436.37549,437.02763 C 436.69482,437.30888 437.16211,437.4495 437.77734,437.4495 C 438.38671,437.4495 438.92871,437.3162 439.40332,437.0496 C 439.87792,436.783 440.22656,436.41825 440.44922,435.95536 C 440.61913,435.59794 440.70409,435.0706 440.7041,434.37333 L 440.7041,433.79325 z M 444.76465,442.05497 L 444.76465,429.14384 L 446.20605,429.14384 L 446.20605,430.35673 C 446.5459,429.88213 446.92968,429.52617 447.35742,429.28886 C 447.78515,429.05156 448.30371,428.93291 448.91309,428.9329 C 449.70995,428.93291 450.41308,429.13799 451.02246,429.54814 C 451.63183,429.9583 452.09179,430.53691 452.40234,431.28397 C 452.71288,432.03105 452.86815,432.8499 452.86816,433.74052 C 452.86815,434.6956 452.69677,435.55546 452.354,436.32011 C 452.01122,437.08476 451.51318,437.67069 450.85986,438.07792 C 450.20654,438.48515 449.51953,438.68876 448.79883,438.68876 C 448.27148,438.68876 447.79834,438.57743 447.37939,438.35478 C 446.96045,438.13212 446.61621,437.85087 446.34668,437.51103 L 446.34668,442.05497 L 444.76465,442.05497 z M 446.19727,433.86356 C 446.19726,435.06474 446.44043,435.95243 446.92676,436.52665 C 447.41308,437.10087 448.00195,437.38798 448.69336,437.38798 C 449.39648,437.38798 449.99853,437.09062 450.49951,436.49589 C 451.00048,435.90117 451.25097,434.97978 451.25098,433.73173 C 451.25097,432.54228 451.00634,431.65166 450.51709,431.05985 C 450.02783,430.46806 449.44335,430.17217 448.76367,430.17216 C 448.08984,430.17217 447.49365,430.48711 446.9751,431.11698 C 446.45654,431.74687 446.19726,432.6624 446.19727,433.86356 L 446.19727,433.86356 z M 331.10449,460.97782 L 331.10449,449.61356 L 326.85938,449.61356 L 326.85938,448.09306 L 337.07227,448.09306 L 337.07227,449.61356 L 332.80957,449.61356 L 332.80957,460.97782 L 331.10449,460.97782 z M 345.01758,457.97196 L 346.65234,458.17411 C 346.39452,459.12919 345.91698,459.8704 345.21973,460.39774 C 344.52245,460.92509 343.63183,461.18876 342.54785,461.18876 C 341.18261,461.18876 340.10009,460.76835 339.30029,459.92753 C 338.50049,459.08671 338.10059,457.90751 338.10059,456.38993 C 338.10059,454.81963 338.50488,453.60088 339.31348,452.73368 C 340.12207,451.8665 341.17089,451.43291 342.45996,451.4329 C 343.708,451.43291 344.72753,451.85771 345.51855,452.70731 C 346.30956,453.55693 346.70507,454.75224 346.70508,456.29325 C 346.70507,456.38701 346.70214,456.52763 346.69629,456.71513 L 339.73535,456.71513 C 339.79394,457.74052 340.08398,458.52568 340.60547,459.0706 C 341.12695,459.61552 341.77734,459.88798 342.55664,459.88798 C 343.13671,459.88798 343.63183,459.73564 344.04199,459.43095 C 344.45214,459.12626 344.77734,458.63993 345.01758,457.97196 L 345.01758,457.97196 z M 339.82324,455.41435 L 345.03516,455.41435 C 344.96484,454.6292 344.76562,454.04033 344.4375,453.64774 C 343.93359,453.03838 343.28027,452.73369 342.47754,452.73368 C 341.75097,452.73369 341.14013,452.97685 340.64502,453.46317 C 340.1499,453.94951 339.87597,454.5999 339.82324,455.41435 L 339.82324,455.41435 z M 354.73828,459.82646 C 354.15234,460.3245 353.58837,460.67607 353.04639,460.88114 C 352.50439,461.08622 351.92285,461.18876 351.30176,461.18876 C 350.27636,461.18876 349.48828,460.93827 348.9375,460.4373 C 348.38672,459.93632 348.11133,459.29618 348.11133,458.51689 C 348.11133,458.05986 348.21533,457.64238 348.42334,457.26444 C 348.63135,456.88652 348.90381,456.5833 349.24072,456.35478 C 349.57763,456.12626 349.95703,455.95341 350.37891,455.83622 C 350.68945,455.75419 351.1582,455.67509 351.78516,455.59892 C 353.06249,455.44658 354.00292,455.26494 354.60645,455.05399 C 354.6123,454.8372 354.61523,454.69951 354.61523,454.64091 C 354.61523,453.99638 354.46581,453.54228 354.16699,453.2786 C 353.76269,452.92119 353.1621,452.74248 352.36523,452.74247 C 351.62109,452.74248 351.07177,452.87285 350.71729,453.13358 C 350.36279,453.39433 350.10058,453.85576 349.93066,454.51786 L 348.38379,454.30692 C 348.52441,453.64482 348.75586,453.11015 349.07813,452.70292 C 349.40039,452.2957 349.86621,451.98223 350.47559,451.76249 C 351.08496,451.54277 351.79101,451.43291 352.59375,451.4329 C 353.39062,451.43291 354.03808,451.52666 354.53613,451.71415 C 355.03417,451.90166 355.40038,452.1375 355.63477,452.42167 C 355.86913,452.70586 356.03319,453.06474 356.12695,453.49833 C 356.17968,453.76787 356.20605,454.2542 356.20605,454.95731 L 356.20605,457.06669 C 356.20605,458.5374 356.23974,459.46757 356.30713,459.85722 C 356.3745,460.24687 356.5078,460.6204 356.70703,460.97782 L 355.05469,460.97782 C 354.89062,460.6497 354.78515,460.26591 354.73828,459.82646 L 354.73828,459.82646 z M 354.60645,456.29325 C 354.03222,456.52763 353.17089,456.72685 352.02246,456.89091 C 351.37207,456.98466 350.91211,457.09013 350.64258,457.20731 C 350.37304,457.32451 350.16504,457.49589 350.01855,457.72147 C 349.87207,457.94706 349.79883,458.19755 349.79883,458.47294 C 349.79883,458.89482 349.95849,459.24638 350.27783,459.52763 C 350.59716,459.80888 351.06445,459.9495 351.67969,459.9495 C 352.28906,459.9495 352.83105,459.8162 353.30566,459.5496 C 353.78027,459.283 354.1289,458.91825 354.35156,458.45536 C 354.52148,458.09794 354.60644,457.5706 354.60645,456.87333 L 354.60645,456.29325 z M 358.66699,460.97782 L 358.66699,451.64384 L 360.08203,451.64384 L 360.08203,452.95341 C 360.375,452.49639 360.76465,452.12871 361.25098,451.85038 C 361.7373,451.57207 362.29101,451.43291 362.91211,451.4329 C 363.60351,451.43291 364.1704,451.57646 364.61279,451.86356 C 365.05517,452.15068 365.36718,452.55205 365.54883,453.06767 C 366.2871,451.97783 367.24804,451.43291 368.43164,451.4329 C 369.35741,451.43291 370.06932,451.68926 370.56738,452.20194 C 371.06542,452.71465 371.31444,453.5042 371.31445,454.5706 L 371.31445,460.97782 L 369.74121,460.97782 L 369.74121,455.09794 C 369.7412,454.46513 369.68993,454.00957 369.5874,453.73124 C 369.48485,453.45293 369.29882,453.22881 369.0293,453.05888 C 368.75975,452.88896 368.44335,452.804 368.08008,452.80399 C 367.42382,452.804 366.8789,453.02226 366.44531,453.45878 C 366.01171,453.89531 365.79491,454.59404 365.79492,455.55497 L 365.79492,460.97782 L 364.21289,460.97782 L 364.21289,454.91337 C 364.21288,454.21025 364.08398,453.68291 363.82617,453.33134 C 363.56835,452.97978 363.14648,452.804 362.56055,452.80399 C 362.11523,452.804 361.70361,452.92119 361.32568,453.15556 C 360.94775,453.38994 360.67382,453.73271 360.50391,454.18388 C 360.33398,454.63506 360.24902,455.28545 360.24902,456.13505 L 360.24902,460.97782 L 358.66699,460.97782 z "
     id="flowRoot8726" />
</svg>
